<svg viewBox="0 0 1803.46 1981.71" xmlns="http://www.w3.org/2000/svg" xmlns:xlink="http://www.w3.org/1999/xlink"><linearGradient id="a" gradientTransform="translate(0 1208.43)" gradientUnits="userSpaceOnUse" x1="165.28" x2="1743.86" y1="518.07" y2="-1060.52"><stop offset=".06" stop-color="#556f7a"/><stop offset=".61" stop-color="#b0bec5"/><stop offset="1" stop-color="#edeff0"/></linearGradient><linearGradient id="b" gradientTransform="translate(0 1208.43)" gradientUnits="userSpaceOnUse" x1="901.73" x2="1352.59" y1="442.72" y2="442.72"><stop offset=".2" stop-color="#231f20"/><stop offset="1" stop-color="#010101" stop-opacity=".1"/></linearGradient><linearGradient id="c" x1="737.14" x2="1517.18" xlink:href="#b" y1="-504.42" y2="-1284.46"/><linearGradient id="d" gradientUnits="userSpaceOnUse" x1="901.73" x2="1803.46" y1="765.42" y2="765.42"><stop offset="0" stop-color="#231f20"/><stop offset=".11" stop-color="#181516" stop-opacity=".67"/><stop offset=".28" stop-color="#0b0a0a" stop-opacity=".34"/><stop offset=".5" stop-color="#030303" stop-opacity=".15"/><stop offset="1" stop-color="#010101" stop-opacity=".1"/></linearGradient><linearGradient id="e" x1="165.28" x2="495.15" xlink:href="#a" y1="-383.33" y2="-713.2"/><linearGradient id="f" gradientUnits="userSpaceOnUse" x1="0" x2="450.86" y1="660.51" y2="660.51"><stop offset=".2" stop-color="#231f20"/><stop offset="1" stop-color="#171415" stop-opacity=".53"/></linearGradient><path d="m901.73 1530.85 450.86-210.24v450.86l-450.86 210.24-450.86-210.24-450.87-210.24v-901.73l450.86 210.24v450.86l450.86 210.24zm898.79-1321.98-447.93-208.87-901.73 417.75v450.86l450.86 210.24 450.86-210.24v451.99l450.86-210.24v-902.85l-2.93 1.37s0 0 0 0z" fill="url(#a)"/><path d="m901.73 1530.85v450.86l450.86-210.24v-450.86z" fill="url(#b)" opacity=".34"/><path d="m450.86 417.75 901.73-417.75 450.86 210.24-901.73 417.75z" fill="url(#c)" opacity=".34"/><path d="m1352.59 1320.6 450.86-210.24v-900.12s-901.73 417.75-901.73 417.75v450.86l450.86-210.24v451.99z" fill="url(#d)" opacity=".32"/><path d="m450.86 450.95-450.86 208.88 450.86 210.24z" fill="url(#e)"/><path d="m450.86 450.95-450.86 208.88 450.86 210.24z" fill="url(#f)" opacity=".49"/></svg>