<?xml version="1.0" encoding="UTF-8"?>
<svg id="Layer_2" data-name="Layer 2" xmlns="http://www.w3.org/2000/svg" xmlns:xlink="http://www.w3.org/1999/xlink" viewBox="0 0 1803.46 1981.71">
  <defs>
    <style>
      .cls-1 {
        fill: url(#linear-gradient-4);
        opacity: .32;
      }

      .cls-1, .cls-2, .cls-3 {
        isolation: isolate;
      }

      .cls-2 {
        fill: url(#linear-gradient-2);
      }

      .cls-2, .cls-4 {
        opacity: .34;
      }

      .cls-3 {
        fill: url(#linear-gradient-6);
        opacity: .49;
      }

      .cls-5 {
        fill: url(#linear-gradient);
      }

      .cls-6 {
        fill: url(#linear-gradient-3);
      }

      .cls-7 {
        fill: url(#linear-gradient-5);
      }
    </style>
    <linearGradient id="linear-gradient" x1="165.28" y1="518.07" x2="1743.86" y2="-1060.52" gradientTransform="translate(0 1208.43)" gradientUnits="userSpaceOnUse">
      <stop offset=".06" stop-color="#556f7a"/>
      <stop offset=".61" stop-color="#b0bec5"/>
      <stop offset="1" stop-color="#edeff0"/>
    </linearGradient>
    <linearGradient id="linear-gradient-2" x1="901.73" y1="442.72" x2="1352.59" y2="442.72" gradientTransform="translate(0 1208.43)" gradientUnits="userSpaceOnUse">
      <stop offset=".2" stop-color="#231f20"/>
      <stop offset="1" stop-color="#010101" stop-opacity=".1"/>
    </linearGradient>
    <linearGradient id="linear-gradient-3" x1="737.14" y1="-504.42" x2="1517.18" y2="-1284.46" xlink:href="#linear-gradient-2"/>
    <linearGradient id="linear-gradient-4" x1="901.73" y1="-443.01" x2="1803.46" y2="-443.01" gradientTransform="translate(0 1208.43)" gradientUnits="userSpaceOnUse">
      <stop offset="0" stop-color="#231f20"/>
      <stop offset=".11" stop-color="#181516" stop-opacity=".67"/>
      <stop offset=".28" stop-color="#0b0a0a" stop-opacity=".34"/>
      <stop offset=".5" stop-color="#030303" stop-opacity=".15"/>
      <stop offset="1" stop-color="#010101" stop-opacity=".1"/>
    </linearGradient>
    <linearGradient id="linear-gradient-5" x1="165.28" y1="-383.33" x2="495.15" y2="-713.2" xlink:href="#linear-gradient"/>
    <linearGradient id="linear-gradient-6" x1="0" y1="-547.92" x2="450.86" y2="-547.92" gradientTransform="translate(0 1208.43)" gradientUnits="userSpaceOnUse">
      <stop offset=".2" stop-color="#231f20"/>
      <stop offset="1" stop-color="#171415" stop-opacity=".53"/>
    </linearGradient>
  </defs>
  <g id="mark-gray">
    <g id="c">
      <g id="d">
        <g id="e">
          <path id="g" class="cls-5" d="m901.73,1530.85l450.86-210.24v450.86l-450.86,210.24-450.86-210.24L0,1561.23v-901.73l450.86,210.24v450.86l450.86,210.24h0ZM1800.52,208.87L1352.59,0,450.86,417.75v450.86l450.86,210.24,450.86-210.24v451.99l450.86-210.24V207.51l-2.93,1.37h0s0,0,0,0Z"/>
          <path id="i" class="cls-2" d="m901.73,1530.85v450.86l450.86-210.24v-450.86l-450.86,210.24Z"/>
          <g id="j" class="cls-4">
            <path id="l" class="cls-6" d="m450.86,417.75L1352.59,0l450.86,210.24-901.73,417.75-450.86-210.24h0Z"/>
          </g>
          <path id="n" class="cls-1" d="m1352.59,1320.6l450.86-210.24V210.24s-901.73,417.75-901.73,417.75v450.86l450.86-210.24v451.99Z"/>
          <path id="p" class="cls-7" d="m450.86,450.95L0,659.83l450.86,210.24v-419.12Z"/>
          <path id="r" class="cls-3" d="m450.86,450.95L0,659.83l450.86,210.24v-419.12Z"/>
        </g>
      </g>
    </g>
  </g>
</svg>