<?xml version="1.0" encoding="UTF-8"?>
<svg id="Layer_2" data-name="Layer 2" xmlns="http://www.w3.org/2000/svg" xmlns:xlink="http://www.w3.org/1999/xlink" viewBox="0 0 532.58 101.26">
  <defs>
    <style>
      .cls-1 {
        fill: url(#linear-gradient-4);
        opacity: .32;
      }

      .cls-1, .cls-2, .cls-3 {
        isolation: isolate;
      }

      .cls-2 {
        fill: url(#linear-gradient-2);
      }

      .cls-2, .cls-4 {
        opacity: .34;
      }

      .cls-3 {
        fill: url(#linear-gradient-6);
        opacity: .49;
      }

      .cls-5 {
        fill: url(#linear-gradient);
      }

      .cls-6 {
        fill: #fff;
      }

      .cls-7 {
        fill: url(#linear-gradient-3);
      }

      .cls-8 {
        fill: url(#linear-gradient-5);
      }
    </style>
    <linearGradient id="linear-gradient" x1="8.45" y1="877.6" x2="89.11" y2="958.26" gradientTransform="translate(0 965.82) scale(1 -1)" gradientUnits="userSpaceOnUse">
      <stop offset=".06" stop-color="#556f7a"/>
      <stop offset=".61" stop-color="#b0bec5"/>
      <stop offset="1" stop-color="#edeff0"/>
    </linearGradient>
    <linearGradient id="linear-gradient-2" x1="46.08" y1="881.45" x2="69.11" y2="881.45" gradientTransform="translate(0 965.82) scale(1 -1)" gradientUnits="userSpaceOnUse">
      <stop offset=".2" stop-color="#231f20"/>
      <stop offset="1" stop-color="#010101" stop-opacity=".1"/>
    </linearGradient>
    <linearGradient id="linear-gradient-3" x1="37.67" y1="929.84" x2="77.52" y2="969.7" xlink:href="#linear-gradient-2"/>
    <linearGradient id="linear-gradient-4" x1="46.08" y1="926.7" x2="92.15" y2="926.7" gradientTransform="translate(0 965.82) scale(1 -1)" gradientUnits="userSpaceOnUse">
      <stop offset="0" stop-color="#231f20"/>
      <stop offset=".11" stop-color="#181516" stop-opacity=".67"/>
      <stop offset=".28" stop-color="#0b0a0a" stop-opacity=".34"/>
      <stop offset=".5" stop-color="#030303" stop-opacity=".15"/>
      <stop offset="1" stop-color="#010101" stop-opacity=".1"/>
    </linearGradient>
    <linearGradient id="linear-gradient-5" x1="8.45" y1="923.65" x2="25.3" y2="940.51" xlink:href="#linear-gradient"/>
    <linearGradient id="linear-gradient-6" x1="0" y1="932.06" x2="23.04" y2="932.06" gradientTransform="translate(0 965.82) scale(1 -1)" gradientUnits="userSpaceOnUse">
      <stop offset=".2" stop-color="#231f20"/>
      <stop offset="1" stop-color="#171415" stop-opacity=".53"/>
    </linearGradient>
  </defs>
  <g id="mark">
    <g id="g73">
      <g id="g71">
        <g id="Layer_1-2" data-name="Layer 1">
          <g id="g54">
            <path id="path36" class="cls-6" d="m152.76,89.95c-2.57,0-5.07-.4-7.5-1.2-2.43-.8-4.63-1.89-6.61-3.28-1.98-1.39-3.64-2.98-5-4.79-1.35-1.8-2.27-3.68-2.76-5.62l2.29.1-.31,13.64h-7.71V11.86h7.81v35.71l-1.56.42c.48-1.94,1.37-3.8,2.66-5.57,1.28-1.77,2.9-3.33,4.84-4.68,1.94-1.35,4.08-2.41,6.4-3.18,2.32-.76,4.74-1.15,7.24-1.15,4.86,0,9.21,1.22,13.07,3.64,3.85,2.43,6.92,5.76,9.21,9.99,2.29,4.23,3.44,9.09,3.44,14.58s-1.11,10.36-3.33,14.63c-2.22,4.27-5.26,7.62-9.11,10.05-3.85,2.43-8.21,3.65-13.07,3.65h0Zm-1.25-7.39c3.68,0,6.94-.92,9.79-2.76,2.85-1.84,5.08-4.34,6.72-7.5,1.63-3.16,2.45-6.72,2.45-10.67s-.82-7.6-2.45-10.72c-1.63-3.12-3.87-5.59-6.72-7.39-2.85-1.8-6.11-2.71-9.79-2.71s-6.94.9-9.79,2.71c-2.85,1.81-5.09,4.27-6.72,7.39-1.63,3.12-2.45,6.7-2.45,10.72s.82,7.62,2.45,10.78c1.63,3.16,3.87,5.64,6.72,7.44,2.84,1.8,6.11,2.71,9.79,2.71h0Z"/>
            <path id="path38" class="cls-6" d="m208.88,89.95c-4.16,0-7.69-.85-10.57-2.55-2.88-1.7-5.07-4.18-6.56-7.44-1.49-3.26-2.24-7.32-2.24-12.18v-33.21h7.91v31.65c0,3.68.5,6.75,1.51,9.21,1.01,2.46,2.53,4.32,4.58,5.57,2.05,1.25,4.56,1.87,7.55,1.87,2.29,0,4.41-.4,6.35-1.2,1.94-.8,3.64-1.89,5.1-3.28,1.46-1.39,2.6-3.02,3.44-4.89.83-1.88,1.25-3.85,1.25-5.94v-33.01h7.81v54.35h-7.71l-.31-11.45,1.25-.63c-.83,2.43-2.22,4.63-4.16,6.61-1.94,1.98-4.25,3.56-6.92,4.74-2.67,1.18-5.43,1.77-8.28,1.77h0Z"/>
            <path id="path40" class="cls-6" d="m256.15,22.79c-1.94,0-3.42-.5-4.42-1.51-1.01-1-1.51-2.38-1.51-4.11s.52-3.12,1.56-4.16c1.04-1.04,2.5-1.56,4.37-1.56s3.33.5,4.37,1.51c1.04,1.01,1.56,2.41,1.56,4.22,0,1.67-.52,3.02-1.56,4.06-1.04,1.04-2.5,1.56-4.37,1.56h0Zm-3.85,66.12v-54.35h7.81v54.35h-7.81Z"/>
            <path id="path42" class="cls-6" d="m277.39,88.9V11.86h7.81v77.05h-7.81Z"/>
            <path id="path44" class="cls-6" d="m321.64,89.95c-4.93,0-9.35-1.21-13.28-3.65-3.92-2.43-7.01-5.78-9.27-10.05-2.26-4.27-3.38-9.11-3.38-14.53s1.15-10.36,3.44-14.63c2.29-4.27,5.38-7.62,9.27-10.05,3.89-2.43,8.26-3.64,13.12-3.64,2.71,0,5.33.42,7.86,1.25,2.53.83,4.81,2,6.82,3.49,2.01,1.49,3.68,3.19,5,5.1,1.32,1.91,2.12,3.9,2.39,5.99l-2.39-.83V11.86h7.81v77.05h-7.7l-.21-13.54,1.98-.73c-.28,1.94-1.06,3.84-2.34,5.67-1.29,1.84-2.9,3.49-4.84,4.95-1.94,1.46-4.15,2.6-6.61,3.44-2.47.83-5.02,1.25-7.65,1.25h0Zm1.15-7.18c3.61,0,6.84-.9,9.68-2.71,2.84-1.8,5.08-4.3,6.72-7.5,1.63-3.19,2.45-6.84,2.45-10.93s-.82-7.72-2.45-10.88c-1.63-3.16-3.87-5.66-6.72-7.5-2.85-1.84-6.08-2.76-9.68-2.76s-7.03.92-9.84,2.76c-2.81,1.84-5.03,4.34-6.66,7.5-1.63,3.16-2.45,6.78-2.45,10.88s.8,7.64,2.39,10.83,3.82,5.71,6.66,7.55c2.84,1.84,6.14,2.76,9.89,2.76h0Z"/>
            <path id="path46" class="cls-6" d="m364.43,88.9V11.86h7.81v77.05h-7.81Z"/>
            <path id="path48" class="cls-6" d="m410.55,89.95c-5.41,0-10.22-1.18-14.42-3.54-4.2-2.36-7.48-5.66-9.84-9.89-2.36-4.23-3.54-9.09-3.54-14.58,0-4.23.66-8.07,1.98-11.51s3.18-6.44,5.57-9.01c2.4-2.57,5.26-4.56,8.59-5.99,3.33-1.42,6.94-2.13,10.83-2.13,3.68,0,7.03.66,10.05,1.98,3.02,1.32,5.62,3.14,7.81,5.47,2.19,2.33,3.83,5.09,4.95,8.28,1.11,3.19,1.59,6.7,1.46,10.52l-.1,3.64h-45.29l-1.15-6.56h40.5l-1.87,1.77v-2.5c-.14-2.5-.87-4.91-2.19-7.24-1.32-2.32-3.18-4.22-5.57-5.67-2.4-1.46-5.26-2.19-8.59-2.19-3.89,0-7.25.78-10.1,2.34-2.85,1.56-5.04,3.87-6.56,6.92-1.53,3.05-2.29,6.84-2.29,11.35s.83,8.04,2.5,11.19c1.67,3.16,4.04,5.61,7.13,7.34,3.09,1.74,6.82,2.6,11.19,2.6,2.57,0,5.12-.43,7.65-1.3,2.53-.87,5.33-2.58,8.38-5.15l4.06,5.62c-1.6,1.6-3.51,3-5.73,4.22-2.22,1.22-4.65,2.19-7.29,2.92-2.64.73-5.35,1.09-8.12,1.09Z"/>
            <path id="path50" class="cls-6" d="m462.93,89.95c-4.65,0-8.82-.87-12.5-2.6-3.68-1.73-6.6-4.02-8.75-6.87l5.52-4.79c2.01,2.43,4.39,4.27,7.13,5.52,2.74,1.25,5.81,1.87,9.21,1.87,1.73,0,3.3-.19,4.68-.57,1.39-.38,2.6-.95,3.65-1.72,1.04-.76,1.84-1.67,2.39-2.71.55-1.04.83-2.19.83-3.44,0-2.29-1.01-4.2-3.02-5.73-.9-.63-2.19-1.27-3.85-1.93-1.67-.66-3.68-1.3-6.04-1.93-3.89-1.11-7.12-2.24-9.68-3.38-2.57-1.15-4.58-2.48-6.04-4.01-1.04-1.25-1.82-2.6-2.34-4.06-.52-1.46-.78-3.05-.78-4.79,0-2.22.47-4.27,1.41-6.14.94-1.87,2.25-3.52,3.96-4.94,1.7-1.42,3.71-2.5,6.04-3.23,2.32-.73,4.84-1.09,7.55-1.09,2.57,0,5.1.35,7.6,1.04,2.5.69,4.82,1.7,6.98,3.02,2.15,1.32,3.99,2.88,5.52,4.69l-4.79,5.21c-1.32-1.39-2.78-2.64-4.37-3.75-1.6-1.11-3.28-1.98-5.05-2.6-1.77-.63-3.59-.94-5.47-.94-1.67,0-3.21.21-4.63.63-1.42.42-2.64.99-3.64,1.72-1.01.73-1.77,1.61-2.29,2.66s-.78,2.19-.78,3.44c0,1.04.21,1.98.63,2.81s1.01,1.56,1.77,2.19c.97.76,2.34,1.48,4.11,2.13,1.77.66,3.97,1.34,6.61,2.03,3.05.83,5.64,1.68,7.76,2.55,2.12.87,3.87,1.89,5.26,3.07,1.87,1.39,3.21,2.99,4.01,4.79.8,1.8,1.2,3.85,1.2,6.14,0,3.05-.85,5.76-2.55,8.12-1.7,2.36-4.04,4.22-7.03,5.57s-6.39,2.03-10.2,2.03h0Z"/>
            <path id="path52" class="cls-6" d="m512.8,89.95c-4.65,0-8.82-.87-12.5-2.6-3.68-1.73-6.6-4.02-8.75-6.87l5.52-4.79c2.01,2.43,4.39,4.27,7.13,5.52,2.74,1.25,5.81,1.87,9.21,1.87,1.73,0,3.3-.19,4.68-.57,1.39-.38,2.6-.95,3.65-1.72,1.04-.76,1.84-1.67,2.39-2.71.55-1.04.83-2.19.83-3.44,0-2.29-1.01-4.2-3.02-5.73-.9-.63-2.19-1.27-3.85-1.93-1.67-.66-3.68-1.3-6.04-1.93-3.89-1.11-7.12-2.24-9.68-3.38-2.57-1.15-4.58-2.48-6.04-4.01-1.04-1.25-1.82-2.6-2.34-4.06-.52-1.46-.78-3.05-.78-4.79,0-2.22.47-4.27,1.41-6.14.94-1.87,2.25-3.52,3.96-4.94,1.7-1.42,3.71-2.5,6.04-3.23,2.32-.73,4.84-1.09,7.55-1.09,2.57,0,5.1.35,7.6,1.04,2.5.69,4.82,1.7,6.98,3.02,2.15,1.32,3.99,2.88,5.52,4.69l-4.79,5.21c-1.32-1.39-2.78-2.64-4.37-3.75-1.6-1.11-3.28-1.98-5.05-2.6-1.77-.63-3.59-.94-5.47-.94-1.67,0-3.21.21-4.63.63-1.42.42-2.64.99-3.64,1.72-1.01.73-1.77,1.61-2.29,2.66s-.78,2.19-.78,3.44c0,1.04.21,1.98.63,2.81s1.01,1.56,1.77,2.19c.97.76,2.34,1.48,4.11,2.13,1.77.66,3.97,1.34,6.61,2.03,3.05.83,5.64,1.68,7.76,2.55,2.12.87,3.87,1.89,5.26,3.07,1.87,1.39,3.21,2.99,4.01,4.79.8,1.8,1.2,3.85,1.2,6.14,0,3.05-.85,5.76-2.55,8.12-1.7,2.36-4.04,4.22-7.03,5.57s-6.39,2.03-10.2,2.03h0Z"/>
          </g>
          <path id="path56" class="cls-5" d="m46.08,78.22l23.04-10.74v23.04l-23.04,10.74-23.04-10.74L0,79.78v-46.08l23.04,10.74v23.04l23.04,10.74ZM92,10.67L69.11,0,23.04,21.35v23.04l23.04,10.74,23.04-10.74v23.1l23.04-10.74V10.6l-.15.07h0Z"/>
          <path id="polygon58" class="cls-2" d="m46.08,101.26l23.04-10.74v-23.04l-23.04,10.74v23.04Z"/>
          <g id="g62" class="cls-4">
            <path id="polygon60" class="cls-7" d="m69.11,0l23.04,10.74-46.08,21.35-23.04-10.74L69.11,0Z"/>
          </g>
          <path id="polygon64" class="cls-1" d="m92.15,56.74V10.74l-46.08,21.35v23.04l23.04-10.74v23.1l23.04-10.74Z"/>
          <path id="polygon66" class="cls-8" d="m0,33.72l23.04,10.74v-21.42L0,33.72Z"/>
          <path id="polygon68" class="cls-3" d="m0,33.72l23.04,10.74v-21.42L0,33.72Z"/>
        </g>
      </g>
    </g>
  </g>
</svg>