<svg viewBox="0 0 532.58 101.26" xmlns="http://www.w3.org/2000/svg" xmlns:xlink="http://www.w3.org/1999/xlink"><linearGradient id="a" gradientTransform="matrix(1 0 0 -1 0 965.82)" gradientUnits="userSpaceOnUse" x1="8.45" x2="89.11" y1="877.6" y2="958.26"><stop offset=".06" stop-color="#556f7a"/><stop offset=".61" stop-color="#b0bec5"/><stop offset="1" stop-color="#edeff0"/></linearGradient><linearGradient id="b" gradientTransform="matrix(1 0 0 -1 0 965.82)" gradientUnits="userSpaceOnUse" x1="46.08" x2="69.11" y1="881.45" y2="881.45"><stop offset=".2" stop-color="#231f20"/><stop offset="1" stop-color="#010101" stop-opacity=".1"/></linearGradient><linearGradient id="c" x1="37.67" x2="77.52" xlink:href="#b" y1="929.84" y2="969.7"/><linearGradient id="d" gradientTransform="matrix(1 0 0 -1 0 965.82)" gradientUnits="userSpaceOnUse" x1="46.08" x2="92.15" y1="926.7" y2="926.7"><stop offset="0" stop-color="#231f20"/><stop offset=".11" stop-color="#181516" stop-opacity=".67"/><stop offset=".28" stop-color="#0b0a0a" stop-opacity=".34"/><stop offset=".5" stop-color="#030303" stop-opacity=".15"/><stop offset="1" stop-color="#010101" stop-opacity=".1"/></linearGradient><linearGradient id="e" x1="8.45" x2="25.3" xlink:href="#a" y1="923.65" y2="940.51"/><linearGradient id="f" gradientTransform="matrix(1 0 0 -1 0 965.82)" gradientUnits="userSpaceOnUse" x1="0" x2="23.04" y1="932.06" y2="932.06"><stop offset=".2" stop-color="#231f20"/><stop offset="1" stop-color="#171415" stop-opacity=".53"/></linearGradient><g fill="#fff"><path d="m152.76 89.95c-2.57 0-5.07-.4-7.5-1.2s-4.63-1.89-6.61-3.28-3.64-2.98-5-4.79c-1.35-1.8-2.27-3.68-2.76-5.62l2.29.1-.31 13.64h-7.71v-76.94h7.81v35.71l-1.56.42c.48-1.94 1.37-3.8 2.66-5.57 1.28-1.77 2.9-3.33 4.84-4.68s4.08-2.41 6.4-3.18c2.32-.76 4.74-1.15 7.24-1.15 4.86 0 9.21 1.22 13.07 3.64 3.85 2.43 6.92 5.76 9.21 9.99s3.44 9.09 3.44 14.58-1.11 10.36-3.33 14.63-5.26 7.62-9.11 10.05-8.21 3.65-13.07 3.65zm-1.25-7.39c3.68 0 6.94-.92 9.79-2.76s5.08-4.34 6.72-7.5c1.63-3.16 2.45-6.72 2.45-10.67s-.82-7.6-2.45-10.72-3.87-5.59-6.72-7.39-6.11-2.71-9.79-2.71-6.94.9-9.79 2.71-5.09 4.27-6.72 7.39-2.45 6.7-2.45 10.72.82 7.62 2.45 10.78 3.87 5.64 6.72 7.44c2.84 1.8 6.11 2.71 9.79 2.71z"/><path d="m208.88 89.95c-4.16 0-7.69-.85-10.57-2.55s-5.07-4.18-6.56-7.44-2.24-7.32-2.24-12.18v-33.21h7.91v31.65c0 3.68.5 6.75 1.51 9.21s2.53 4.32 4.58 5.57 4.56 1.87 7.55 1.87c2.29 0 4.41-.4 6.35-1.2s3.64-1.89 5.1-3.28 2.6-3.02 3.44-4.89c.83-1.88 1.25-3.85 1.25-5.94v-33.01h7.81v54.35h-7.71l-.31-11.45 1.25-.63c-.83 2.43-2.22 4.63-4.16 6.61s-4.25 3.56-6.92 4.74-5.43 1.77-8.28 1.77z"/><path d="m256.15 22.79c-1.94 0-3.42-.5-4.42-1.51-1.01-1-1.51-2.38-1.51-4.11s.52-3.12 1.56-4.16 2.5-1.56 4.37-1.56 3.33.5 4.37 1.51 1.56 2.41 1.56 4.22c0 1.67-.52 3.02-1.56 4.06s-2.5 1.56-4.37 1.56zm-3.85 66.12v-54.35h7.81v54.35z"/><path d="m277.39 88.9v-77.04h7.81v77.05h-7.81z"/><path d="m321.64 89.95c-4.93 0-9.35-1.21-13.28-3.65-3.92-2.43-7.01-5.78-9.27-10.05s-3.38-9.11-3.38-14.53 1.15-10.36 3.44-14.63 5.38-7.62 9.27-10.05 8.26-3.64 13.12-3.64c2.71 0 5.33.42 7.86 1.25s4.81 2 6.82 3.49 3.68 3.19 5 5.1 2.12 3.9 2.39 5.99l-2.39-.83v-36.54h7.81v77.05h-7.7l-.21-13.54 1.98-.73c-.28 1.94-1.06 3.84-2.34 5.67-1.29 1.84-2.9 3.49-4.84 4.95s-4.15 2.6-6.61 3.44c-2.47.83-5.02 1.25-7.65 1.25zm1.15-7.18c3.61 0 6.84-.9 9.68-2.71 2.84-1.8 5.08-4.3 6.72-7.5 1.63-3.19 2.45-6.84 2.45-10.93s-.82-7.72-2.45-10.88-3.87-5.66-6.72-7.5-6.08-2.76-9.68-2.76-7.03.92-9.84 2.76-5.03 4.34-6.66 7.5-2.45 6.78-2.45 10.88.8 7.64 2.39 10.83 3.82 5.71 6.66 7.55 6.14 2.76 9.89 2.76z"/><path d="m364.43 88.9v-77.04h7.81v77.05h-7.81z"/><path d="m410.55 89.95c-5.41 0-10.22-1.18-14.42-3.54s-7.48-5.66-9.84-9.89-3.54-9.09-3.54-14.58c0-4.23.66-8.07 1.98-11.51s3.18-6.44 5.57-9.01c2.4-2.57 5.26-4.56 8.59-5.99 3.33-1.42 6.94-2.13 10.83-2.13 3.68 0 7.03.66 10.05 1.98s5.62 3.14 7.81 5.47 3.83 5.09 4.95 8.28c1.11 3.19 1.59 6.7 1.46 10.52l-.1 3.64h-45.29l-1.15-6.56h40.5l-1.87 1.77v-2.5c-.14-2.5-.87-4.91-2.19-7.24-1.32-2.32-3.18-4.22-5.57-5.67-2.4-1.46-5.26-2.19-8.59-2.19-3.89 0-7.25.78-10.1 2.34s-5.04 3.87-6.56 6.92c-1.53 3.05-2.29 6.84-2.29 11.35s.83 8.04 2.5 11.19c1.67 3.16 4.04 5.61 7.13 7.34 3.09 1.74 6.82 2.6 11.19 2.6 2.57 0 5.12-.43 7.65-1.3s5.33-2.58 8.38-5.15l4.06 5.62c-1.6 1.6-3.51 3-5.73 4.22s-4.65 2.19-7.29 2.92-5.35 1.09-8.12 1.09z"/><path d="m462.93 89.95c-4.65 0-8.82-.87-12.5-2.6s-6.6-4.02-8.75-6.87l5.52-4.79c2.01 2.43 4.39 4.27 7.13 5.52s5.81 1.87 9.21 1.87c1.73 0 3.3-.19 4.68-.57 1.39-.38 2.6-.95 3.65-1.72 1.04-.76 1.84-1.67 2.39-2.71s.83-2.19.83-3.44c0-2.29-1.01-4.2-3.02-5.73-.9-.63-2.19-1.27-3.85-1.93-1.67-.66-3.68-1.3-6.04-1.93-3.89-1.11-7.12-2.24-9.68-3.38-2.57-1.15-4.58-2.48-6.04-4.01-1.04-1.25-1.82-2.6-2.34-4.06s-.78-3.05-.78-4.79c0-2.22.47-4.27 1.41-6.14s2.25-3.52 3.96-4.94c1.7-1.42 3.71-2.5 6.04-3.23 2.32-.73 4.84-1.09 7.55-1.09 2.57 0 5.1.35 7.6 1.04s4.82 1.7 6.98 3.02c2.15 1.32 3.99 2.88 5.52 4.69l-4.79 5.21c-1.32-1.39-2.78-2.64-4.37-3.75-1.6-1.11-3.28-1.98-5.05-2.6-1.77-.63-3.59-.94-5.47-.94-1.67 0-3.21.21-4.63.63s-2.64.99-3.64 1.72c-1.01.73-1.77 1.61-2.29 2.66s-.78 2.19-.78 3.44c0 1.04.21 1.98.63 2.81s1.01 1.56 1.77 2.19c.97.76 2.34 1.48 4.11 2.13 1.77.66 3.97 1.34 6.61 2.03 3.05.83 5.64 1.68 7.76 2.55s3.87 1.89 5.26 3.07c1.87 1.39 3.21 2.99 4.01 4.79s1.2 3.85 1.2 6.14c0 3.05-.85 5.76-2.55 8.12s-4.04 4.22-7.03 5.57-6.39 2.03-10.2 2.03z"/><path d="m512.8 89.95c-4.65 0-8.82-.87-12.5-2.6s-6.6-4.02-8.75-6.87l5.52-4.79c2.01 2.43 4.39 4.27 7.13 5.52s5.81 1.87 9.21 1.87c1.73 0 3.3-.19 4.68-.57 1.39-.38 2.6-.95 3.65-1.72 1.04-.76 1.84-1.67 2.39-2.71s.83-2.19.83-3.44c0-2.29-1.01-4.2-3.02-5.73-.9-.63-2.19-1.27-3.85-1.93-1.67-.66-3.68-1.3-6.04-1.93-3.89-1.11-7.12-2.24-9.68-3.38-2.57-1.15-4.58-2.48-6.04-4.01-1.04-1.25-1.82-2.6-2.34-4.06s-.78-3.05-.78-4.79c0-2.22.47-4.27 1.41-6.14s2.25-3.52 3.96-4.94c1.7-1.42 3.71-2.5 6.04-3.23 2.32-.73 4.84-1.09 7.55-1.09 2.57 0 5.1.35 7.6 1.04s4.82 1.7 6.98 3.02c2.15 1.32 3.99 2.88 5.52 4.69l-4.79 5.21c-1.32-1.39-2.78-2.64-4.37-3.75-1.6-1.11-3.28-1.98-5.05-2.6-1.77-.63-3.59-.94-5.47-.94-1.67 0-3.21.21-4.63.63s-2.64.99-3.64 1.72c-1.01.73-1.77 1.61-2.29 2.66s-.78 2.19-.78 3.44c0 1.04.21 1.98.63 2.81s1.01 1.56 1.77 2.19c.97.76 2.34 1.48 4.11 2.13 1.77.66 3.97 1.34 6.61 2.03 3.05.83 5.64 1.68 7.76 2.55s3.87 1.89 5.26 3.07c1.87 1.39 3.21 2.99 4.01 4.79s1.2 3.85 1.2 6.14c0 3.05-.85 5.76-2.55 8.12s-4.04 4.22-7.03 5.57-6.39 2.03-10.2 2.03z"/></g><path d="m46.08 78.22 23.04-10.74v23.04l-23.04 10.74-23.04-10.74-23.04-10.74v-46.08l23.04 10.74v23.04zm45.92-67.55-22.89-10.67-46.07 21.35v23.04l23.04 10.74 23.04-10.74v23.1l23.04-10.74v-46.15l-.15.07z" fill="url(#a)"/><path d="m46.08 101.26 23.04-10.74v-23.04l-23.04 10.74z" fill="url(#b)" opacity=".34"/><path d="m69.11 0 23.04 10.74-46.08 21.35-23.04-10.74z" fill="url(#c)" opacity=".34"/><path d="m92.15 56.74v-46l-46.08 21.35v23.04l23.04-10.74v23.1l23.04-10.74z" fill="url(#d)" opacity=".32"/><path d="m0 33.72 23.04 10.74v-21.42z" fill="url(#e)"/><path d="m0 33.72 23.04 10.74v-21.42z" fill="url(#f)" opacity=".49"/></svg>